<?xml version="1.0" encoding="UTF-8" standalone="no"?>
<!-- Generator: Adobe Illustrator 19.0.0, SVG Export Plug-In . SVG Version: 6.00 Build 0)  -->

<svg
   xmlns:dc="http://purl.org/dc/elements/1.1/"
   xmlns:cc="http://creativecommons.org/ns#"
   xmlns:rdf="http://www.w3.org/1999/02/22-rdf-syntax-ns#"
   xmlns:svg="http://www.w3.org/2000/svg"
   xmlns="http://www.w3.org/2000/svg"
   xmlns:sodipodi="http://sodipodi.sourceforge.net/DTD/sodipodi-0.dtd"
   xmlns:inkscape="http://www.inkscape.org/namespaces/inkscape"
   version="1.1"
   id="Capa_1"
   x="0px"
   y="0px"
   viewBox="0 0 455.431 455.431"
   style="enable-background:new 0 0 455.431 455.431;"
   xml:space="preserve"
   sodipodi:docname="play_button_1236468_easyicon.net.svg"
   inkscape:version="0.92.4 (5da689c313, 2019-01-14)"><metadata
   id="metadata6171"><rdf:RDF><cc:Work
       rdf:about=""><dc:format>image/svg+xml</dc:format><dc:type
         rdf:resource="http://purl.org/dc/dcmitype/StillImage" /></cc:Work></rdf:RDF></metadata><defs
   id="defs6169" /><sodipodi:namedview
   pagecolor="#ffffff"
   bordercolor="#666666"
   borderopacity="1"
   objecttolerance="10"
   gridtolerance="10"
   guidetolerance="10"
   inkscape:pageopacity="0"
   inkscape:pageshadow="2"
   inkscape:window-width="1920"
   inkscape:window-height="1018"
   id="namedview6167"
   showgrid="false"
   inkscape:zoom="0.51819046"
   inkscape:cx="247.97832"
   inkscape:cy="227.7155"
   inkscape:window-x="-8"
   inkscape:window-y="-8"
   inkscape:window-maximized="1"
   inkscape:current-layer="Capa_1" />


<g
   id="g6177"><path
     id="path6128"
     d="M405.493,412.764c-69.689,56.889-287.289,56.889-355.556,0c-69.689-56.889-62.578-300.089,0-364.089  s292.978-64,355.556,0S475.182,355.876,405.493,412.764z"
     style="fill:#6DAFE0;" /><g
     id="g6132"
     style="opacity:0.2;">
	<path
   id="path6130"
   d="M229.138,313.209c-62.578,49.778-132.267,75.378-197.689,76.8   c-48.356-82.489-38.4-283.022,18.489-341.333c51.2-52.622,211.911-62.578,304.356-29.867   C377.049,112.676,330.116,232.142,229.138,313.209z"
   style="fill:#FFFFFF;" />
</g><path
     id="path6134"
     d="M190.738,119.787l143.644,92.444c12.8,7.111,12.8,22.756,0,31.289l-143.644,92.444  c-15.644,9.956-35.556,0-35.556-15.644V135.431C153.76,119.787,175.093,109.831,190.738,119.787z"
     style="fill:#FFFFFF;" /></g>
<g
   id="g6136">
</g>
<g
   id="g6138">
</g>
<g
   id="g6140">
</g>
<g
   id="g6142">
</g>
<g
   id="g6144">
</g>
<g
   id="g6146">
</g>
<g
   id="g6148">
</g>
<g
   id="g6150">
</g>
<g
   id="g6152">
</g>
<g
   id="g6154">
</g>
<g
   id="g6156">
</g>
<g
   id="g6158">
</g>
<g
   id="g6160">
</g>
<g
   id="g6162">
</g>
<g
   id="g6164">
</g>
</svg>